<?xml version="1.0" encoding="UTF-8" standalone="no"?>
<!DOCTYPE svg PUBLIC "-//W3C//DTD SVG 1.1//EN"
 "http://www.w3.org/Graphics/SVG/1.1/DTD/svg11.dtd">
<!-- Generated by graphviz version 2.44.1 (0)
 -->
<!-- Title: foo Pages: 1 -->
<svg width="163pt" height="256pt"
 viewBox="0.00 0.00 163.46 255.89" xmlns="http://www.w3.org/2000/svg" xmlns:xlink="http://www.w3.org/1999/xlink">
<g id="graph0" class="graph" transform="scale(1 1) rotate(0) translate(4 251.89)">
<title>foo</title>
<polygon fill="white" stroke="transparent" points="-4,4 -4,-251.89 159.46,-251.89 159.46,4 -4,4"/>
<!-- y1 -->
<g id="node1" class="node">
<title>y1</title>
<ellipse fill="none" stroke="black" cx="114.95" cy="-106.49" rx="19.5" ry="19.5"/>
<ellipse fill="none" stroke="black" cx="114.95" cy="-106.49" rx="23.5" ry="23.5"/>
<text text-anchor="middle" x="114.95" y="-102.79" font-family="Times,serif" font-size="14.00">y1</text>
</g>
<!-- y2 -->
<g id="node2" class="node">
<title>y2</title>
<ellipse fill="none" stroke="black" cx="49.95" cy="-106.49" rx="19.5" ry="19.5"/>
<ellipse fill="none" stroke="black" cx="49.95" cy="-106.49" rx="23.5" ry="23.5"/>
<text text-anchor="middle" x="49.95" y="-102.79" font-family="Times,serif" font-size="14.00">y2</text>
</g>
<!-- yn -->
<g id="node3" class="node">
<title>yn</title>
<ellipse fill="none" stroke="black" cx="49.95" cy="-23.5" rx="19.5" ry="19.5"/>
<ellipse fill="none" stroke="black" cx="49.95" cy="-23.5" rx="23.5" ry="23.5"/>
<text text-anchor="middle" x="49.95" y="-19.8" font-family="Times,serif" font-size="14.00">yn</text>
</g>
<!-- y2&#45;&gt;yn -->
<g id="edge7" class="edge">
<title>y2&#45;&gt;yn</title>
<path fill="none" stroke="black" d="M49.95,-82.93C49.95,-75.01 49.95,-65.95 49.95,-57.35"/>
<polygon fill="black" stroke="black" points="53.45,-57.22 49.95,-47.22 46.45,-57.22 53.45,-57.22"/>
</g>
<!-- mu -->
<g id="node4" class="node">
<title>mu</title>
<ellipse fill="none" stroke="black" cx="122.95" cy="-206.94" rx="23" ry="23"/>
<text text-anchor="middle" x="122.95" y="-203.24" font-family="Times,serif" font-size="14.00">mu</text>
</g>
<!-- mu&#45;&gt;y1 -->
<g id="edge1" class="edge">
<title>mu&#45;&gt;y1</title>
<path fill="none" stroke="black" d="M121.17,-184.09C120.12,-171.15 118.77,-154.5 117.59,-140.03"/>
<polygon fill="black" stroke="black" points="121.07,-139.65 116.77,-129.96 114.09,-140.21 121.07,-139.65"/>
</g>
<!-- mu&#45;&gt;y2 -->
<g id="edge2" class="edge">
<title>mu&#45;&gt;y2</title>
<path fill="none" stroke="black" d="M109.56,-187.88C98.41,-172.85 82.38,-151.23 69.75,-134.2"/>
<polygon fill="black" stroke="black" points="72.27,-131.72 63.5,-125.77 66.64,-135.89 72.27,-131.72"/>
</g>
<!-- mu&#45;&gt;yn -->
<g id="edge3" class="edge">
<title>mu&#45;&gt;yn</title>
<path fill="none" stroke="black" d="M134.25,-186.76C147.57,-161.42 165.66,-116.14 146.95,-83 133.13,-58.53 104.53,-43.16 81.94,-34.34"/>
<polygon fill="black" stroke="black" points="82.97,-30.99 72.38,-30.85 80.57,-37.57 82.97,-30.99"/>
</g>
<!-- sigma^2 -->
<g id="node5" class="node">
<title>sigma^2</title>
<ellipse fill="none" stroke="black" cx="40.95" cy="-206.94" rx="40.89" ry="40.89"/>
<text text-anchor="middle" x="40.95" y="-203.24" font-family="Times,serif" font-size="14.00">sigma^2</text>
</g>
<!-- sigma^2&#45;&gt;y1 -->
<g id="edge4" class="edge">
<title>sigma^2&#45;&gt;y1</title>
<path fill="none" stroke="black" d="M65.18,-173.7C74.9,-160.77 85.97,-146.04 95.2,-133.77"/>
<polygon fill="black" stroke="black" points="98.04,-135.81 101.25,-125.72 92.44,-131.61 98.04,-135.81"/>
</g>
<!-- sigma^2&#45;&gt;y2 -->
<g id="edge5" class="edge">
<title>sigma^2&#45;&gt;y2</title>
<path fill="none" stroke="black" d="M44.61,-165.9C45.39,-157.29 46.22,-148.29 46.97,-140.01"/>
<polygon fill="black" stroke="black" points="50.46,-140.26 47.89,-129.99 43.49,-139.63 50.46,-140.26"/>
</g>
<!-- sigma^2&#45;&gt;yn -->
<g id="edge6" class="edge">
<title>sigma^2&#45;&gt;yn</title>
<path fill="none" stroke="black" d="M25.61,-168.81C17.53,-144.28 10.66,-111.5 17.95,-83 20.73,-72.12 26,-61.08 31.47,-51.58"/>
<polygon fill="black" stroke="black" points="34.49,-53.34 36.7,-42.98 28.51,-49.7 34.49,-53.34"/>
</g>
</g>
</svg>
