<?xml version="1.0" encoding="UTF-8" standalone="no"?>
<svg
   xmlns:dc="http://purl.org/dc/elements/1.1/"
   xmlns:cc="http://creativecommons.org/ns#"
   xmlns:rdf="http://www.w3.org/1999/02/22-rdf-syntax-ns#"
   xmlns:svg="http://www.w3.org/2000/svg"
   xmlns="http://www.w3.org/2000/svg"
   xmlns:sodipodi="http://sodipodi.sourceforge.net/DTD/sodipodi-0.dtd"
   xmlns:inkscape="http://www.inkscape.org/namespaces/inkscape"
   width="240mm"
   height="120mm"
   viewBox="0 0 240 120"
   version="1.1"
   id="svg8"
   inkscape:version="1.0.1 (3bc2e813f5, 2020-09-07)"
   sodipodi:docname="connectedness_open_set.svg">
  <defs
     id="defs2">
    <inkscape:path-effect
       effect="spiro"
       id="path-effect32"
       is_visible="true"
       lpeversion="1" />
    <inkscape:path-effect
       effect="spiro"
       id="path-effect28"
       is_visible="true"
       lpeversion="1" />
    <inkscape:path-effect
       effect="spiro"
       id="path-effect24"
       is_visible="true"
       lpeversion="1" />
    <inkscape:path-effect
       effect="spiro"
       id="path-effect20"
       is_visible="true"
       lpeversion="1" />
    <inkscape:path-effect
       effect="spiro"
       id="path-effect16"
       is_visible="true"
       lpeversion="1" />
    <inkscape:path-effect
       effect="spiro"
       id="path-effect12"
       is_visible="true"
       lpeversion="1" />
  </defs>
  <sodipodi:namedview
     id="base"
     pagecolor="#ffffff"
     bordercolor="#666666"
     borderopacity="1.0"
     inkscape:pageopacity="0.0"
     inkscape:pageshadow="2"
     inkscape:zoom="1.174603"
     inkscape:cx="567.83704"
     inkscape:cy="233.58363"
     inkscape:document-units="mm"
     inkscape:current-layer="layer1"
     showgrid="false"
     showborder="true"
     width="200mm"
     showguides="true"
     inkscape:guide-bbox="true"
     inkscape:window-width="956"
     inkscape:window-height="1040"
     inkscape:window-x="960"
     inkscape:window-y="38"
     inkscape:window-maximized="1"
     inkscape:document-rotation="0"
     inkscape:snap-bbox="true"
     inkscape:bbox-nodes="true"
     inkscape:snap-bbox-edge-midpoints="true"
     inkscape:snap-bbox-midpoints="true"
     inkscape:object-paths="false"
     inkscape:snap-intersection-paths="false"
     inkscape:snap-smooth-nodes="false"
     inkscape:snap-midpoints="true"
     inkscape:snap-object-midpoints="true"
     inkscape:snap-center="true"
     inkscape:object-nodes="false">
    <inkscape:grid
       type="xygrid"
       id="grid815"
       units="mm"
       spacingx="10"
       spacingy="10"
       empspacing="4"
       dotted="false" />
  </sodipodi:namedview>
  <metadata
     id="metadata5">
    <rdf:RDF>
      <cc:Work
         rdf:about="">
        <dc:format>image/svg+xml</dc:format>
        <dc:type
           rdf:resource="http://purl.org/dc/dcmitype/StillImage" />
        <dc:title />
      </cc:Work>
    </rdf:RDF>
  </metadata>
  <g
     inkscape:label="Layer 1"
     inkscape:groupmode="layer"
     id="layer1"
     transform="translate(0,-177)">
    <path
       style="fill:none;stroke:#000000;stroke-width:0.264583px;stroke-linecap:butt;stroke-linejoin:miter;stroke-opacity:1"
       d="M 33.771673,261.94178 Z"
       id="path10"
       inkscape:path-effect="#path-effect12"
       inkscape:original-d="m 33.771673,261.94178 c 44.91366,-68.74979 60.713577,23.45399 0,0 z" />
    <path
       style="fill:none;stroke:#000000;stroke-width:0.264583px;stroke-linecap:butt;stroke-linejoin:miter;stroke-opacity:1"
       d="m 33.771673,261.94178 c 1.956277,-0.86097 3.524368,-2.56444 4.220763,-4.58516 0.508397,-1.47521 0.561837,-3.07215 0.430033,-4.62693 -0.131804,-1.55478 -0.442632,-3.08838 -0.645446,-4.6355 -0.355257,-2.71 -0.369094,-5.52022 0.490584,-8.11468 0.42984,-1.29723 1.077953,-2.52842 1.957826,-3.57408 0.879872,-1.04566 1.995247,-1.90224 3.259837,-2.4203 1.155436,-0.47334 2.437322,-0.65872 3.670374,-0.46208 1.233053,0.19664 2.411468,0.78492 3.260291,1.70066 0.774727,0.8358 1.254804,1.91107 1.529031,3.01723 0.274227,1.10615 0.353938,2.25029 0.412781,3.38841 0.05884,1.13812 0.09831,2.28127 0.29496,3.40381 0.196651,1.12254 0.558445,2.23353 1.209733,3.16873 0.626173,0.89913 1.509271,1.61158 2.506375,2.06581 0.997103,0.45422 2.105015,0.65273 3.199815,0.60857 2.189599,-0.0883 4.275724,-1.14643 5.842661,-2.67838 1.344078,-1.31406 2.334779,-2.96389 3.00318,-4.72075 0.668401,-1.75686 1.022871,-3.62133 1.195959,-5.49306 0.346176,-3.74344 -0.02261,-7.51579 0.108971,-11.27291 0.07573,-2.16241 0.319598,-4.32935 0.908781,-6.41133 0.589182,-2.08197 1.533107,-4.08181 2.912767,-5.74864 1.37966,-1.66682 3.210109,-2.98932 5.284186,-3.60574 2.074077,-0.61642 4.391275,-0.49207 6.314021,0.50031 2.13316,1.10098 3.637922,3.16499 4.564678,5.37941 0.926756,2.21442 1.342757,4.6021 1.807107,6.95729 0.46435,2.35519 0.995693,4.73386 2.123835,6.85278 0.56407,1.05946 1.27669,2.04627 2.15641,2.86281 0.879719,0.81653 1.930175,1.45985 3.080078,1.80388 2.084626,0.62368 4.360846,0.24281 6.462146,0.80778 0.81289,0.21856 1.59063,0.57677 2.42332,0.70006 1.23738,0.18321 2.5233,-0.17982 3.5605,-0.87902 1.03721,-0.69919 1.83626,-1.71582 2.39496,-2.83499 1.11739,-2.23832 1.28981,-4.80962 1.56505,-7.29617 0.34827,-3.14632 0.9143,-6.33656 2.42328,-9.11929 1.28608,-2.37169 3.22927,-4.36538 5.50354,-5.81681 2.27426,-1.45142 4.87236,-2.36841 7.53727,-2.78928 5.32983,-0.84174 10.81799,0.29051 15.82354,2.30548 1.48164,0.59643 2.93654,1.27119 4.46841,1.72324 3.6782,1.08543 7.66913,0.82834 11.34026,-0.28073 3.67114,-1.10908 7.04991,-3.03597 10.17828,-5.25421 2.80265,-1.98728 5.45836,-4.23547 8.56239,-5.70825 2.22023,-1.05344 4.64827,-1.68841 7.10457,-1.76385 2.45631,-0.0754 4.93903,0.41632 7.14186,1.50566 2.20283,1.08934 4.1166,2.78327 5.38838,4.88605 1.27177,2.10279 1.885,4.61303 1.6365,7.0579 -0.31551,3.10417 -1.95766,5.91913 -3.84997,8.39997 -4.01955,5.2697 -9.46114,9.57629 -15.77607,11.58831 -7.29035,2.32281 -15.39069,1.4477 -22.4022,-1.61554 -2.01929,-0.8822 -3.96665,-1.94048 -6.05269,-2.65057 -2.08604,-0.71009 -4.37023,-1.058 -6.4947,-0.47282 -1.94129,0.53472 -3.64566,1.8509 -4.6995,3.5667 -1.05384,1.7158 -1.45766,3.81046 -1.17028,5.80344 0.31935,2.21467 1.4501,4.24322 2.84617,5.99186 1.39607,1.74864 3.06162,3.25904 4.64567,4.8394 1.58405,1.58036 3.10996,3.26184 4.14651,5.24484 1.03655,1.98301 1.55075,4.31473 1.01674,6.48765 -0.30502,1.24116 -0.93412,2.3785 -1.63288,3.44866 -0.69877,1.07016 -1.47441,2.09108 -2.11693,3.19592 -0.86738,1.49149 -1.4799,3.11427 -2.19888,4.68269 -0.71899,1.56842 -1.56672,3.11348 -2.8093,4.3105 -1.05453,1.01586 -2.37193,1.75003 -3.78093,2.14843 -1.409,0.3984 -2.90688,0.46365 -4.35175,0.22624 -2.88973,-0.47483 -5.51192,-2.15967 -7.37445,-4.41953 -1.86253,-2.25987 -2.99759,-5.06319 -3.52663,-7.9435 -0.52903,-2.8803 -0.47353,-5.84279 -0.13735,-8.75192 0.15089,-1.30574 0.35826,-2.61469 0.28954,-3.92733 -0.0687,-1.31263 -0.44162,-2.65539 -1.31427,-3.63835 -0.43633,-0.49147 -0.993,-0.88202 -1.61725,-1.08753 -0.62426,-0.20551 -1.31613,-0.22011 -1.93674,-0.004 -0.62062,0.21626 -1.16265,0.66936 -1.4518,1.25955 -0.28915,0.59019 -0.31119,1.31313 -0.0248,1.90464 0.25568,0.52801 0.72268,0.91685 1.09397,1.37107 0.53306,0.65211 0.8705,1.44522 1.09347,2.25743 0.22297,0.81221 0.33738,1.64947 0.46821,2.48151 0.70059,4.45557 1.88974,8.97344 1.09101,13.41246 -0.39936,2.21951 -1.32173,4.38347 -2.87389,6.01948 -1.55216,1.63601 -3.77274,2.69571 -6.02557,2.59327 -1.4407,-0.0655 -2.88422,-0.62359 -3.87729,-1.6694 -0.63706,-0.6709 -1.07087,-1.51609 -1.34713,-2.39906 -0.27626,-0.88296 -0.40123,-1.80628 -0.47786,-2.72828 -0.15325,-1.84399 -0.12498,-3.74066 -0.75991,-5.47867 -0.51192,-1.4013 -1.43061,-2.62016 -2.45423,-3.70548 -1.02362,-1.08531 -2.16113,-2.057 -3.2121,-3.11585 -0.76756,-0.77331 -1.49368,-1.59732 -2.36613,-2.24999 -0.87246,-0.65267 -1.925922,-1.1311 -3.014669,-1.08879 -0.69394,0.027 -1.372691,0.26685 -1.953445,0.64764 -0.580755,0.3808 -1.065429,0.89907 -1.442902,1.48199 -0.754947,1.16584 -1.075289,2.56027 -1.242024,3.93915 -0.166735,1.37888 -0.193651,2.77453 -0.42725,4.14367 -0.233599,1.36915 -0.695492,2.74079 -1.611975,3.78443 -1.124299,1.28029 -2.860185,1.94176 -4.564046,1.93564 -1.70386,-0.006 -3.368362,-0.63537 -4.779957,-1.58961 -2.823189,-1.90848 -4.599235,-4.97092 -6.476466,-7.81499 -1.347375,-2.04132 -2.832464,-4.05852 -4.844418,-5.44936 -1.005978,-0.69542 -2.137432,-1.22334 -3.336431,-1.46417 -1.199,-0.24083 -2.467102,-0.18684 -3.61507,0.23479 -1.442363,0.52975 -2.637282,1.61769 -3.480076,2.90251 -0.842793,1.28481 -1.355648,2.76078 -1.704183,4.2573 -0.69707,2.99304 -0.776049,6.14871 -1.92985,8.99703 -1.291591,3.18848 -3.942589,5.7997 -7.150228,7.04294 -3.207639,1.24324 -6.925962,1.10069 -10.029003,-0.38448 -3.103041,-1.48517 -5.54634,-4.29169 -6.590028,-7.56969 -1.043687,-3.27801 -0.67281,-6.98054 1.000324,-9.9864 z"
       id="path18"
       inkscape:path-effect="#path-effect20"
       inkscape:original-d="m 33.771673,261.94178 c 1.406919,-1.52838 2.995059,-2.90794 4.220763,-4.58516 0.896694,-1.22701 -0.437737,-7.57908 -0.215413,-9.26243 0.71956,-5.44823 3.017678,-9.49703 5.708247,-14.10906 1.783062,-3.05643 5.310325,-0.92193 6.930665,1.23858 3.214696,4.28637 1.622193,8.41696 3.446505,12.97818 2.404571,6.01201 8.569442,4.46558 11.548851,-0.004 5.104455,-7.65695 1.764175,-14.10897 4.30811,-21.48672 2.150557,-6.2369 7.174433,-16.37966 15.419755,-15.2654 13.277569,1.79432 5.041974,21.5768 13.732108,23.85617 2.170776,0.56938 4.274826,0.57341 6.462146,0.80778 0.83602,0.0896 1.86964,1.33283 2.42332,0.70006 2.45746,-2.80846 5.6886,-7.53911 7.52051,-11.01018 0.97939,-1.85573 0.52471,-5.95499 2.42328,-9.11929 6.3138,-10.52305 18.95682,-10.11124 28.86435,-6.30061 1.37845,0.53017 3.00573,1.5327 4.46841,1.72324 0.70974,0.0925 19.30357,-4.24288 21.51854,-5.53494 3.06053,-1.7853 4.95695,-4.78115 8.56239,-5.70825 7.24067,-1.86187 19.94515,3.73536 21.27131,11.68576 0.2698,1.61744 -3.15887,6.67227 -3.84997,8.39997 -2.90722,7.26785 -7.07155,10.95142 -15.77607,11.58831 -7.35847,0.53841 -15.31554,0.86488 -22.4022,-1.61554 -4.38436,-1.53458 -7.73348,-3.12339 -12.54739,-3.12339 -4.75003,0 -5.44999,5.59213 -5.86978,9.37014 -0.93245,8.3918 10.53196,14.03123 12.65509,22.56375 0.21065,0.8466 -3.39313,5.82313 -3.74981,6.64458 -1.35471,3.11996 -1.53991,7.35366 -5.00818,8.99319 -12.17574,5.75576 -15.38539,-11.76659 -19.17111,-18.74028 -0.25878,-0.4767 -4.92798,-6.30954 -6.05528,-5.49286 -0.47348,0.34302 0.80224,0.86438 1.09397,1.37107 0.80103,1.39126 1.46691,3.1274 1.56168,4.73894 0.23641,4.02045 -3.05623,20.78551 -7.80845,22.02521 -1.60515,0.41873 -3.01399,-0.32647 -3.87729,-1.6694 -2.42068,-3.76555 -1.15249,-7.51085 -2.5849,-10.60601 -1.14497,-2.47404 -4.04237,-4.89524 -5.66633,-6.82133 -1.43335,-1.70001 -2.97161,-3.53955 -5.380799,-3.33878 -5.912569,0.49271 1.792811,10.94754 -6.677596,13.99688 -11.386942,4.09929 -9.899356,-2.94586 -15.820469,-7.46896 -3.294873,-2.51694 -8.063482,-4.58923 -11.795919,-6.67874 -2.439247,-1.36555 -4.305025,14.75229 -7.114109,16.15684 -10.00525,5.00262 -16.978547,-5.76895 -22.768935,-10.89763 z" />
    <path
       style="fill:#000000;fill-opacity:0.12;stroke:none;stroke-width:0.264583px;stroke-linecap:butt;stroke-linejoin:miter;stroke-opacity:1;marker-start:none;marker-end:none"
       d="m 140.34596,245.05041 c -1.16701,-14.69188 -16.257,10.69663 -7.33289,11.14283 1.69119,0.0846 3.10975,-0.32545 4.14657,-1.77708 2.29562,-3.21405 0.67626,-7.02962 3.18632,-9.36575 z"
       id="path36" />
    <path
       style="fill:none;stroke:#ff0000;stroke-width:0.4213225;stroke-linecap:butt;stroke-linejoin:miter;stroke-opacity:1;fill-opacity:1;marker-end:none;marker-start:none;stroke-dasharray:1.05330625, 1.05330625000000011"
       d="m 44.056151,272.29108 18.715945,-19.27343 17.323199,3.51288 37.218515,-16.6249 23.26866,-20.34259 46.5969,-4.41137"
       id="path906" />
    <path
       style="fill:#000000;fill-opacity:0.12;stroke:none;stroke-width:0.342294px;stroke-linecap:butt;stroke-linejoin:miter;stroke-opacity:1;marker-start:none;marker-end:none"
       d="m 86.884069,238.78186 c -2.80003,-0.84723 -5.519961,-0.30713 -8.234218,0.48254 -3.702014,1.07705 -7.038688,14.17801 -2.003685,15.3254 3.429678,0.78155 6.086087,-3.8175 8.765427,-5.27252 3.653772,-1.98418 10.020497,-0.9212 9.365762,-6.25499 -0.169572,-1.38141 -0.931314,-2.55381 -2.204594,-3.14309 -1.810554,-0.83795 -3.703406,-0.11423 -5.688692,-1.13734 z"
       id="path38" />
    <circle
       style="fill:#0000ff;fill-opacity:1;stroke:#0000ff;stroke-width:0.421322;stroke-opacity:1;marker-start:none;marker-end:none"
       id="path66"
       cx="44.056152"
       cy="272.29108"
       r="1.322423" />
    <path
       id="path66-3"
       style="fill:#0000ff;fill-opacity:1;stroke:#0000ff;stroke-width:0.421322;stroke-opacity:1;marker-start:none;marker-end:none"
       d="m 187.2017,213.52473 a 1.322423,1.322423 0 0 0 -1.3224,1.3224 1.322423,1.322423 0 0 0 1.3224,1.3224 1.322423,1.322423 0 0 0 1.3224,-1.3224 1.322423,1.322423 0 0 0 -1.3224,-1.3224 z" />
    <text
       style="font-size:3.43958px;font-family:monospace;-inkscape-font-specification:'monospace, Normal';fill:#000000;fill-opacity:1;stroke:none;stroke-width:0.264583"
       xml:space="preserve"
       id="text936"
       y="265.63361"
       x="136.38889"><tspan
         sodipodi:role="line"
         id="tspan934"
         x="136.38889"
         y="265.63361"
         style="stroke-width:0.264583">$G$</tspan></text>
  </g>
</svg>
